<?xml version="1.0" encoding="UTF-8" standalone="no"?>
<!-- Created with Inkscape (http://www.inkscape.org/) -->

<svg
   width="210mm"
   height="297mm"
   viewBox="0 0 210 297"
   version="1.1"
   id="svg1"
   inkscape:version="1.3 (0e150ed6c4, 2023-07-21)"
   sodipodi:docname="branding.svg"
   xmlns:inkscape="http://www.inkscape.org/namespaces/inkscape"
   xmlns:sodipodi="http://sodipodi.sourceforge.net/DTD/sodipodi-0.dtd"
   xmlns="http://www.w3.org/2000/svg"
   xmlns:svg="http://www.w3.org/2000/svg">
  <sodipodi:namedview
     id="namedview1"
     pagecolor="#ffffff"
     bordercolor="#000000"
     borderopacity="0.25"
     inkscape:showpageshadow="2"
     inkscape:pageopacity="0.0"
     inkscape:pagecheckerboard="0"
     inkscape:deskcolor="#d1d1d1"
     inkscape:document-units="mm"
     inkscape:zoom="0.71713664"
     inkscape:cx="396.71658"
     inkscape:cy="561.25984"
     inkscape:window-width="1920"
     inkscape:window-height="1011"
     inkscape:window-x="0"
     inkscape:window-y="0"
     inkscape:window-maximized="1"
     inkscape:current-layer="layer1" />
  <defs
     id="defs1" />
  <g
     inkscape:label="Layer 1"
     inkscape:groupmode="layer"
     id="layer1">
    <ellipse
       style="fill:#ffffff;stroke:#de2c68;stroke-width:3.01567;stroke-miterlimit:4;stroke-dasharray:none;stroke-opacity:1"
       id="ellipse1091"
       cx="106.97773"
       cy="99.28286"
       rx="33.503227"
       ry="33.481281" />
    <ellipse
       cx="95.632133"
       cy="93.491806"
       fill="none"
       stroke="#de2c68"
       stroke-width="0.557403"
       stroke-miterlimit="4"
       stroke-opacity="1"
       stroke-dasharray="none"
       id="circle1180"
       rx="10.526513"
       ry="10.888043" />
    <ellipse
       cx="114.37771"
       cy="88.001717"
       fill="none"
       stroke="#de2c68"
       stroke-width="0.557408"
       stroke-miterlimit="4"
       stroke-opacity="1"
       stroke-dasharray="none"
       id="circle1182"
       rx="11.363093"
       ry="11.725106" />
    <ellipse
       cx="114.32924"
       cy="88.001686"
       fill="none"
       stroke="#de2c68"
       stroke-width="9.24601"
       stroke-miterlimit="4"
       stroke-opacity="1"
       stroke-dasharray="none"
       id="circle1184"
       rx="14.866678"
       ry="15.23021"
       style="stroke-width:3.01567;stroke-miterlimit:4;stroke-dasharray:none" />
    <polygon
       points="22,52 30,52 26,56 31,56 37,50 31,44 26,44 30,48 22,48 "
       transform="matrix(0.46933045,0,0,0.45131444,78.543575,68.389271)"
       fill="#ffcc33"
       fill-opacity="1"
       id="polygon1186" />
    <polygon
       points="75,47 81,41 73,41 64,50 73,59 81,59 75,53 88,53 88,47 "
       transform="matrix(0.49089423,0,0,0.51541679,77.708685,65.190217)"
       fill="#ffcc33"
       fill-opacity="1"
       id="polygon1188" />
    <path
       d="m 83.304945,118.01949 h 1.69104 v -7.06688 h 0.528449 v -1.08281 h -0.528449 v -0.49869 c 0,-0.19944 0.03523,-0.39891 0.299453,-0.41317 h 0.228996 v -1.08284 h -0.951211 c -1.039283,0 -1.268278,0.42744 -1.268278,0.96883 v 1.02587 h -0.528452 v 1.08281 h 0.528452 v 7.06688"
       fill="#000000"
       fill-opacity="1"
       id="path1192"
       style="stroke-width:0.326157" />
    <path
       d="m 85.999488,118.01949 h 1.691043 v -6.58243 c 0,-0.22797 0.01762,-0.49869 0.440375,-0.49869 0.352298,0 0.369914,0.27072 0.369914,0.49869 v 2.69279 h 1.691042 v -2.8068 c 0,-0.85487 0.03523,-1.553 -1.303512,-1.553 -0.457992,0 -0.915983,0.18524 -1.16259,0.56991 h -0.03523 v -0.47016 h -1.69104 v 8.14969"
       fill="#000000"
       fill-opacity="1"
       id="path1194"
       style="stroke-width:0.326157" />
    <path
       d="m 93.386232,114.81375 v 1.90921 c 0,0.37044 -0.158536,0.39891 -0.405146,0.39891 -0.24661,0 -0.405146,-0.0286 -0.405146,-0.39891 v -2.59311 h 2.501331 v -2.99201 c 0,-0.84061 -0.810292,-1.36779 -2.096185,-1.36779 -1.285894,0 -2.096188,0.52718 -2.096188,1.36779 v 5.61361 c 0,0.84061 0.810294,1.36777 2.096188,1.36777 1.285893,0 2.096185,-0.52716 2.096185,-1.36777 v -1.9377 h -1.691039 m 0,-1.63849 H 92.57594 v -2.00892 c 0,-0.37045 0.158536,-0.39894 0.405146,-0.39894 0.24661,0 0.405146,0.0286 0.405146,0.39894 v 2.00892"
       fill="#000000"
       fill-opacity="1"
       id="path1196"
       style="stroke-width:0.326157" />
    <path
       d="m 97.567045,118.01949 v -8.14969 h -1.691042 v 8.14969 h 1.691042 m 0,-10.14439 h -1.691042 v 1.45328 h 1.691042 v -1.45328"
       fill="#000000"
       fill-opacity="1"
       id="path1198"
       style="stroke-width:0.326157" />
    <path
       d="m 98.649265,118.01949 h 1.691045 v -7.06688 h 0.52845 v -1.08281 h -0.52845 v -0.49869 c 0,-0.19944 0.0352,-0.39891 0.29945,-0.41317 h 0.229 v -1.08284 h -0.951215 c -1.039283,0 -1.26828,0.42744 -1.26828,0.96883 v 1.02587 h -0.52845 v 1.08281 h 0.52845 v 7.06688"
       fill="#000000"
       fill-opacity="1"
       id="path1200"
       style="stroke-width:0.326157" />
    <path
       d="m 105.53618,109.8698 h -1.69104 v 6.58243 c 0,0.228 -0.0176,0.49869 -0.44037,0.49869 -0.3523,0 -0.36992,-0.27069 -0.36992,-0.49869 v -6.58243 h -1.69104 v 6.69642 c 0,0.85487 -0.0352,1.553 1.30351,1.553 0.45799,0 0.91598,-0.18521 1.16259,-0.56992 h 0.0352 v 0.47019 h 1.69104 v -8.14969"
       fill="#000000"
       fill-opacity="1"
       id="path1202"
       style="stroke-width:0.326157" />
    <path
       d="m 106.22922,118.01949 h 1.69105 v -6.58243 c 0,-0.22797 0.0176,-0.49869 0.44037,-0.49869 0.3523,0 0.36991,0.27072 0.36991,0.49869 v 6.58243 h 1.69105 v -6.78193 c 0,-0.85484 -0.0176,-1.46751 -1.30352,-1.46751 -0.45798,0 -0.91598,0.18524 -1.16259,0.56991 h -0.0352 v -0.47016 h -1.69104 v 8.14969"
       fill="#000000"
       fill-opacity="1"
       id="path1204"
       style="stroke-width:0.326157" />
    <path
       d="m 112.84091,118.01949 v -4.28855 h 0.0705 l 0.93359,4.28855 h 1.72627 l -1.02167,-4.47376 0.96883,-3.67593 h -1.69104 l -0.91598,3.74713 h -0.0705 v -5.74183 h -1.69104 v 10.14439 h 1.69104"
       fill="#000000"
       fill-opacity="1"
       id="path1206"
       style="stroke-width:0.326157" />
    <path
       d="M 117.99054,118.01949 V 116.438 h -1.7615 v 1.58149 h 1.7615"
       fill="#000000"
       fill-opacity="1"
       id="path1208"
       style="stroke-width:0.326157" />
    <path
       d="m 118.92442,118.01949 h 1.69104 v -6.58243 c 0,-0.22797 0.0176,-0.49869 0.44037,-0.49869 0.3523,0 0.36992,0.27072 0.36992,0.49869 v 6.58243 h 1.69104 v -6.78193 c 0,-0.85484 -0.0176,-1.46751 -1.30351,-1.46751 -0.45799,0 -0.91598,0.18524 -1.16259,0.56991 h -0.0352 v -0.47016 h -1.69104 v 8.14969"
       fill="#000000"
       fill-opacity="1"
       id="path1210"
       style="stroke-width:0.326157" />
    <path
       d="m 126.31116,114.81375 v 1.90921 c 0,0.37044 -0.15854,0.39891 -0.40515,0.39891 -0.24661,0 -0.40514,-0.0286 -0.40514,-0.39891 v -2.59311 h 2.50133 v -2.99201 c 0,-0.84061 -0.81029,-1.36779 -2.09619,-1.36779 -1.28589,0 -2.09618,0.52718 -2.09618,1.36779 v 5.61361 c 0,0.84061 0.81029,1.36777 2.09618,1.36777 1.2859,0 2.09619,-0.52716 2.09619,-1.36777 v -1.9377 h -1.69104 m 0,-1.63849 h -0.81029 v -2.00892 c 0,-0.37045 0.15853,-0.39894 0.40514,-0.39894 0.24661,0 0.40515,0.0286 0.40515,0.39894 v 2.00892"
       fill="#000000"
       fill-opacity="1"
       id="path1212"
       style="stroke-width:0.326157" />
    <path
       d="m 130.63289,108.40229 h -1.69104 v 1.46751 h -0.49322 v 1.08281 h 0.49322 v 5.98405 c 0,0.31348 0.229,1.08283 1.26828,1.08283 h 0.96882 v -1.08283 h -0.17615 c -0.17615,0 -0.36991,-0.0427 -0.36991,-0.6554 v -5.32865 h 0.54606 v -1.08281 h -0.54606 v -1.46751"
       fill="#000000"
       fill-opacity="1"
       id="path1214"
       style="stroke-width:0.326157" />
  </g>
</svg>
