<?xml version="1.0" encoding="UTF-8" standalone="no"?>
<!-- Created with Inkscape (http://www.inkscape.org/) -->

<svg
   width="210mm"
   height="297mm"
   viewBox="0 0 210 297"
   version="1.1"
   id="svg1"
   inkscape:version="1.3 (0e150ed6c4, 2023-07-21)"
   sodipodi:docname="doku.svg"
   xmlns:inkscape="http://www.inkscape.org/namespaces/inkscape"
   xmlns:sodipodi="http://sodipodi.sourceforge.net/DTD/sodipodi-0.dtd"
   xmlns="http://www.w3.org/2000/svg"
   xmlns:svg="http://www.w3.org/2000/svg">
  <sodipodi:namedview
     id="namedview1"
     pagecolor="#ffffff"
     bordercolor="#000000"
     borderopacity="0.25"
     inkscape:showpageshadow="2"
     inkscape:pageopacity="0.0"
     inkscape:pagecheckerboard="0"
     inkscape:deskcolor="#d1d1d1"
     inkscape:document-units="mm"
     inkscape:zoom="0.71713664"
     inkscape:cx="396.71658"
     inkscape:cy="561.25984"
     inkscape:window-width="1920"
     inkscape:window-height="1011"
     inkscape:window-x="0"
     inkscape:window-y="0"
     inkscape:window-maximized="1"
     inkscape:current-layer="layer1" />
  <defs
     id="defs1">
    <rect
       x="-561.43707"
       y="659.00104"
       width="590.38965"
       height="57.422588"
       id="rect1136" />
    <rect
       x="-180.29881"
       y="811.78314"
       width="824.2644"
       height="492.36511"
       id="rect1138" />
    <rect
       x="-180.29881"
       y="811.78314"
       width="824.2644"
       height="492.36511"
       id="rect1140" />
    <rect
       x="-180.29881"
       y="811.78314"
       width="824.2644"
       height="492.36511"
       id="rect1142" />
    <rect
       x="602.9104"
       y="1250.8768"
       width="897.35632"
       height="73.218315"
       id="rect1144" />
  </defs>
  <g
     inkscape:label="Layer 1"
     inkscape:groupmode="layer"
     id="layer1">
    <rect
       style="fill:#dc0067;fill-opacity:1;stroke:none;stroke-width:0.674357"
       id="rect1051"
       width="129.70996"
       height="77.952499"
       x="33.072914"
       y="54.23959"
       inkscape:export-filename="/home/sam/router-sticker.png"
       inkscape:export-xdpi="95.389999"
       inkscape:export-ydpi="95.389999" />
    <rect
       style="fill:#ffffff;fill-opacity:1;stroke:#dc0067;stroke-width:2.1747;stroke-miterlimit:4;stroke-dasharray:none;stroke-opacity:1"
       id="rect1053"
       width="127.12623"
       height="75.532303"
       x="34.168453"
       y="55.532112"
       ry="10.478639" />
    <text
       xml:space="preserve"
       id="text1059"
       style="font-style:normal;font-weight:normal;font-size:40px;line-height:1.25;font-family:sans-serif;letter-spacing:-0.84px;white-space:pre;shape-inside:url(#rect1136);display:inline;fill:#000000;fill-opacity:1;stroke:none"
       transform="matrix(0.39807742,0,0,0.39807742,263.93157,-203.85751)"><tspan
         x="-561.4375"
         y="695.39696"
         id="tspan11"><tspan
           style="font-family:'AlternateGothic2 BT';-inkscape-font-specification:'AlternateGothic2 BT'"
           id="tspan10">berlin.freifunk.net</tspan></tspan></text>
    <path
       style="fill:none;stroke:#dc0067;stroke-width:0.363778;stroke-linecap:butt;stroke-linejoin:miter;stroke-miterlimit:4;stroke-dasharray:none;stroke-opacity:1"
       d="M 35.459575,126.54713 H 159.13459"
       id="path1061"
       sodipodi:nodetypes="cc" />
    <path
       style="fill:none;stroke:#dc0067;stroke-width:0.363778;stroke-linecap:butt;stroke-linejoin:miter;stroke-miterlimit:4;stroke-dasharray:none;stroke-opacity:1"
       d="M 34.930408,115.9072 H 161.25126"
       id="path1063" />
    <path
       style="fill:none;stroke:#dc0067;stroke-width:0.363778;stroke-linecap:butt;stroke-linejoin:miter;stroke-miterlimit:4;stroke-dasharray:none;stroke-opacity:1"
       d="M 34.930408,105.26727 H 161.25126"
       id="path1065" />
    <path
       style="fill:none;stroke:#dc0067;stroke-width:0.363778;stroke-linecap:butt;stroke-linejoin:miter;stroke-miterlimit:4;stroke-dasharray:none;stroke-opacity:1"
       d="M 34.930408,94.627321 H 129.33145"
       id="path1067"
       sodipodi:nodetypes="cc" />
    <path
       style="fill:none;stroke:#dc0067;stroke-width:0.363778;stroke-linecap:butt;stroke-linejoin:miter;stroke-miterlimit:4;stroke-dasharray:none;stroke-opacity:1"
       d="M 34.930408,83.987393 H 120.81951"
       id="path1069"
       sodipodi:nodetypes="cc" />
    <g
       id="g1095"
       transform="matrix(0.26458333,0,0,0.26458333,-102.71965,-168.661)">
      <text
         xml:space="preserve"
         id="text1075"
         style="font-style:normal;font-weight:normal;font-size:40px;line-height:1.25;font-family:sans-serif;white-space:pre;shape-inside:url(#rect1138);display:inline;fill:#000000;fill-opacity:1;stroke:none"
         transform="matrix(0.40213922,0,0,0.40213922,614.91036,605.42505)"><tspan
           x="-180.29883"
           y="848.17821"
           id="tspan13"><tspan
             style="font-weight:bold;-inkscape-font-specification:'sans-serif Bold'"
             id="tspan12">Name:</tspan></tspan></text>
      <text
         xml:space="preserve"
         id="text1081"
         style="font-style:normal;font-weight:normal;font-size:40px;line-height:1.25;font-family:sans-serif;white-space:pre;shape-inside:url(#rect1140);display:inline;fill:#000000;fill-opacity:1;stroke:none"
         transform="matrix(0.40213922,0,0,0.40213922,614.91036,645.63897)"><tspan
           x="-180.29883"
           y="848.17821"
           id="tspan15"><tspan
             style="font-weight:bold;-inkscape-font-specification:'sans-serif Bold'"
             id="tspan14">Management IP:</tspan></tspan></text>
      <text
         xml:space="preserve"
         id="text1087"
         style="font-style:normal;font-weight:normal;font-size:40px;line-height:1.25;font-family:sans-serif;white-space:pre;shape-inside:url(#rect1142);display:inline;fill:#000000;fill-opacity:1;stroke:none"
         transform="matrix(0.40213922,0,0,0.40213922,614.91036,686.65717)"><tspan
           x="-180.29883"
           y="848.17821"
           id="tspan17"><tspan
             style="font-weight:bold;-inkscape-font-specification:'sans-serif Bold'"
             id="tspan16">Doku:</tspan></tspan></text>
      <text
         xml:space="preserve"
         id="text1093"
         style="font-style:normal;font-weight:normal;font-size:40px;line-height:1.25;font-family:sans-serif;white-space:pre;shape-inside:url(#rect1144);display:inline;fill:#000000;fill-opacity:1;stroke:none"
         transform="matrix(0.40213922,0,0,0.40213922,357.73187,508.81581)"><tspan
           x="602.91016"
           y="1287.272"
           id="tspan18">ff.berlin/d/</tspan></text>
    </g>
    <g
       id="g1134"
       transform="matrix(0.26458333,0,0,0.26458333,-106.01925,-168.661)">
      <g
         transform="matrix(0.34636237,0,0,-0.34636237,844.31878,999.1625)"
         id="g1114"
         style="fill:#ffffff;fill-opacity:1;stroke:#ffffff;stroke-width:63.7136;stroke-miterlimit:4;stroke-dasharray:none;stroke-opacity:1">
        <g
           transform="scale(0.1)"
           id="g1112"
           style="fill:#ffffff;fill-opacity:1;stroke:#ffffff;stroke-width:637.136;stroke-miterlimit:4;stroke-dasharray:none;stroke-opacity:1">
          <path
             id="path1097"
             style="fill:#ffffff;fill-opacity:1;fill-rule:nonzero;stroke:#ffffff;stroke-width:637.136;stroke-miterlimit:4;stroke-dasharray:none;stroke-opacity:1"
             d="m 5.46875,1199.21 c 0,625.12 506.73825,1131.86 1131.85125,1131.86 625.11,0 1131.86,-506.74 1131.86,-1131.86 C 2269.18,574.102 1762.43,67.3633 1137.32,67.3633 512.207,67.3633 5.46875,574.102 5.46875,1199.21" />
          <path
             id="path1099"
             style="fill:#ffffff;fill-opacity:1;fill-rule:nonzero;stroke:#ffffff;stroke-width:637.136;stroke-miterlimit:4;stroke-dasharray:none;stroke-opacity:1"
             d="m 1074.7,1647.08 c 0,909.57 734.23,1646.9 1639.99,1646.9 905.76,0 1640,-737.33 1640,-1646.9 C 4354.69,737.508 3620.45,0.175781 2714.69,0.175781 1808.93,0.175781 1074.7,737.508 1074.7,1647.08" />
          <path
             id="path1101"
             style="fill:#ffffff;fill-opacity:1;stroke:#ffffff;stroke-width:637.136;stroke-linecap:butt;stroke-linejoin:miter;stroke-miterlimit:4;stroke-dasharray:none;stroke-opacity:1"
             d="m 251.148,1199.22 c 0,491.48 396.747,889.9 886.172,889.9 489.42,0 886.17,-398.42 886.17,-889.9 0,-491.49 -396.75,-889.904 -886.17,-889.904 -489.425,0 -886.172,398.414 -886.172,889.904 z" />
          <path
             id="path1103"
             style="fill:#ffffff;fill-opacity:1;fill-rule:nonzero;stroke:#ffffff;stroke-width:637.136;stroke-miterlimit:4;stroke-dasharray:none;stroke-opacity:1"
             d="m 2273.06,1401.21 375.17,376.87 h 353.32 l -250.1,-251.25 500.65,0.01 v -251.22 l -500.65,-0.04 250.1,-251.25 h -353.32 l -375.17,376.88" />
          <path
             id="path1105"
             style="fill:#ffffff;fill-opacity:1;fill-rule:nonzero;stroke:#ffffff;stroke-width:637.136;stroke-miterlimit:4;stroke-dasharray:none;stroke-opacity:1"
             d="M 1160.27,1401.21 938.695,1623.79 H 730.02 l 147.714,-148.39 -295.66,-0.01 v -148.42 l 295.66,0.04 -147.714,-148.39 h 208.675 l 221.575,222.59" />
          <path
             id="path1107"
             style="fill:#ffffff;fill-opacity:1;stroke:#ffffff;stroke-width:637.136;stroke-linecap:butt;stroke-linejoin:miter;stroke-miterlimit:4;stroke-dasharray:none;stroke-opacity:1"
             d="m 1474.06,1647.09 c 0,688.07 555.44,1245.85 1240.63,1245.85 685.19,0 1240.63,-557.78 1240.63,-1245.85 0,-688.078 -555.44,-1245.856 -1240.63,-1245.856 -685.19,0 -1240.63,557.778 -1240.63,1245.856 z" />
          <path
             id="path1110"
             style="fill:#ffffff;fill-opacity:1;stroke:#ffffff;stroke-width:637.136;stroke-linecap:butt;stroke-linejoin:miter;stroke-miterlimit:4;stroke-dasharray:none;stroke-opacity:1"
             d="m 1763.92,1647.09 c 0,527.31 425.67,954.77 950.77,954.77 525.1,0 950.76,-427.46 950.76,-954.77 0,-527.31 -425.66,-954.77 -950.76,-954.77 -525.1,0 -950.77,427.46 -950.77,954.77 z" />
        </g>
      </g>
      <g
         transform="matrix(0.34636237,0,0,-0.34636237,844.31878,999.1625)"
         id="g1132">
        <g
           transform="scale(0.1)"
           id="g1130">
          <path
             id="path1116"
             style="fill:#ffffff;fill-opacity:1;fill-rule:nonzero;stroke:none"
             d="m 5.46875,1199.21 c 0,625.12 506.73825,1131.86 1131.85125,1131.86 625.11,0 1131.86,-506.74 1131.86,-1131.86 C 2269.18,574.102 1762.43,67.3633 1137.32,67.3633 512.207,67.3633 5.46875,574.102 5.46875,1199.21" />
          <path
             id="path1118"
             style="fill:#ffffff;fill-opacity:1;fill-rule:nonzero;stroke:none"
             d="m 1074.7,1647.08 c 0,909.57 734.23,1646.9 1639.99,1646.9 905.76,0 1640,-737.33 1640,-1646.9 C 4354.69,737.508 3620.45,0.175781 2714.69,0.175781 1808.93,0.175781 1074.7,737.508 1074.7,1647.08" />
          <path
             id="path1120"
             style="fill:none;stroke:#dc0067;stroke-width:44.4471;stroke-linecap:butt;stroke-linejoin:miter;stroke-miterlimit:3.86369;stroke-dasharray:none;stroke-opacity:1"
             d="m 251.148,1199.22 c 0,491.48 396.747,889.9 886.172,889.9 489.42,0 886.17,-398.42 886.17,-889.9 0,-491.49 -396.75,-889.904 -886.17,-889.904 -489.425,0 -886.172,398.414 -886.172,889.904 z" />
          <path
             id="path1122"
             style="fill:#ffb400;fill-opacity:1;fill-rule:nonzero;stroke:none"
             d="m 2273.06,1401.21 375.17,376.87 h 353.32 l -250.1,-251.25 500.65,0.01 v -251.22 l -500.65,-0.04 250.1,-251.25 h -353.32 l -375.17,376.88" />
          <path
             id="path1124"
             style="fill:#ffb400;fill-opacity:1;fill-rule:nonzero;stroke:none"
             d="M 1160.27,1401.21 938.695,1623.79 H 730.02 l 147.714,-148.39 -295.66,-0.01 v -148.42 l 295.66,0.04 -147.714,-148.39 h 208.675 l 221.575,222.59" />
          <path
             id="path1126"
             style="fill:none;stroke:#dc0067;stroke-width:265.708;stroke-linecap:butt;stroke-linejoin:miter;stroke-miterlimit:3.86369;stroke-dasharray:none;stroke-opacity:1"
             d="m 1474.06,1647.09 c 0,688.07 555.44,1245.85 1240.63,1245.85 685.19,0 1240.63,-557.78 1240.63,-1245.85 0,-688.078 -555.44,-1245.856 -1240.63,-1245.856 -685.19,0 -1240.63,557.778 -1240.63,1245.856 z" />
          <path
             id="path1128"
             style="fill:none;stroke:#dc0067;stroke-width:44.452;stroke-linecap:butt;stroke-linejoin:miter;stroke-miterlimit:3.86369;stroke-dasharray:none;stroke-opacity:1"
             d="m 1763.92,1647.09 c 0,527.31 425.67,954.77 950.77,954.77 525.1,0 950.76,-427.46 950.76,-954.77 0,-527.31 -425.66,-954.77 -950.76,-954.77 -525.1,0 -950.77,427.46 -950.77,954.77 z" />
        </g>
      </g>
    </g>
  </g>
</svg>
