<?xml version="1.0" encoding="UTF-8" standalone="no"?>
<!-- Created with Inkscape (http://www.inkscape.org/) -->

<svg
   width="111mm"
   height="80mm"
   viewBox="0 0 111 80"
   version="1.1"
   id="svg1"
   inkscape:version="1.3 (0e150ed6c4, 2023-07-21)"
   sodipodi:docname="doku.svg"
   xmlns:inkscape="http://www.inkscape.org/namespaces/inkscape"
   xmlns:sodipodi="http://sodipodi.sourceforge.net/DTD/sodipodi-0.dtd"
   xmlns="http://www.w3.org/2000/svg"
   xmlns:svg="http://www.w3.org/2000/svg">
  <sodipodi:namedview
     id="namedview1"
     pagecolor="#ffffff"
     bordercolor="#000000"
     borderopacity="0.25"
     inkscape:showpageshadow="2"
     inkscape:pageopacity="0.0"
     inkscape:pagecheckerboard="0"
     inkscape:deskcolor="#d1d1d1"
     inkscape:document-units="mm"
     inkscape:zoom="1.2306029"
     inkscape:cx="264.91079"
     inkscape:cy="142.61302"
     inkscape:window-width="1366"
     inkscape:window-height="699"
     inkscape:window-x="0"
     inkscape:window-y="0"
     inkscape:window-maximized="1"
     inkscape:current-layer="layer1" />
  <defs
     id="defs1">
    <rect
       x="-561.43707"
       y="659.00104"
       width="590.38965"
       height="57.422588"
       id="rect1136" />
    <rect
       x="-180.29881"
       y="811.78314"
       width="824.2644"
       height="492.36511"
       id="rect1138" />
    <rect
       x="-180.29881"
       y="811.78314"
       width="824.2644"
       height="492.36511"
       id="rect1140" />
    <rect
       x="-180.29881"
       y="811.78314"
       width="824.2644"
       height="492.36511"
       id="rect1142" />
    <rect
       x="602.9104"
       y="1250.8768"
       width="897.35632"
       height="73.218315"
       id="rect1144" />
  </defs>
  <g
     inkscape:label="Layer 1"
     inkscape:groupmode="layer"
     id="layer1">
    <rect
       style="fill:#dc0067;fill-opacity:1;stroke:none;stroke-width:0.672713"
       id="rect1"
       width="117"
       height="86"
       x="-3"
       y="-3"
       inkscape:export-filename="/home/sam/router-sticker.png"
       inkscape:export-xdpi="95.389999"
       inkscape:export-ydpi="95.389999" />
    <rect
       style="fill:#dc0067;fill-opacity:1;stroke:none;stroke-width:0.631967"
       id="rect1051"
       width="111"
       height="80"
       x="8.7036129e-09"
       y="4.9511719e-08"
       inkscape:export-filename="/home/sam/router-sticker.png"
       inkscape:export-xdpi="95.389999"
       inkscape:export-ydpi="95.389999" />
    <rect
       style="fill:#ffffff;fill-opacity:1;stroke:#dc0067;stroke-width:2.04532;stroke-miterlimit:4;stroke-dasharray:none;stroke-opacity:1"
       id="rect1053"
       width="108.95468"
       height="77.954689"
       x="1.0226551"
       y="1.0226551"
       ry="10.814697" />
    <path
       style="font-size:40px;line-height:1.25;font-family:'AlternateGothic2 BT';-inkscape-font-specification:'AlternateGothic2 BT';letter-spacing:-0.84px;white-space:pre"
       d="m -555.63672,691.43212 q 0.42969,0.46875 0.89844,0.74218 0.46875,0.21485 0.9375,0.21485 0.68359,0 1.01562,-0.42969 0.35157,-0.44922 0.35157,-1.44531 v -10.76172 q 0,-1.03516 -0.42969,-1.58203 -0.41016,-0.56641 -1.17188,-0.56641 -0.44921,0 -0.82031,0.21485 -0.39062,0.17578 -0.78125,0.625 z m -3.92578,3.96484 v -28.24219 h 3.92578 v 9.08203 q 0.74219,-0.91796 1.64063,-1.42578 0.91797,-0.52734 1.79687,-0.52734 1.79688,0 2.77344,1.34766 0.99609,1.32812 0.99609,3.88671 v 11.5625 q 0,2.2461 -0.89843,3.41797 -0.89844,1.17188 -2.63672,1.17188 -1.13282,0 -2.03125,-0.44922 -0.89844,-0.46875 -1.64063,-1.42578 v 1.60156 z m 17.24594,-13.16406 h 3.39843 v -2.10938 q 0,-1.28906 -0.41015,-1.85547 -0.39063,-0.58593 -1.26953,-0.58593 -0.89844,0 -1.32813,0.5664 -0.39062,0.56641 -0.39062,1.875 z m -4.00391,7.28515 v -9.35546 q 0,-2.67579 1.64063,-4.39454 1.66015,-1.73828 4.23828,-1.73828 2.61718,0 4.0625,1.60157 1.44531,1.58203 1.44531,4.53125 v 5.3125 h -7.38281 v 3.92578 q 0,1.66015 0.37109,2.28515 0.39063,0.625 1.30859,0.625 0.91797,0 1.3086,-0.52734 0.41015,-0.54688 0.41015,-2.38281 v -1.44532 h 3.98438 v 1.5625 q 0,3.1836 -1.46484,4.82422 -1.44532,1.6211 -4.33594,1.6211 -2.57813,0 -4.08203,-1.71875 -1.50391,-1.71875 -1.50391,-4.72657 z m 13.78891,5.87891 v -20.83984 h 3.92578 v 2.83203 q 0.74219,-1.54297 1.77734,-2.30469 1.05469,-0.76172 2.34375,-0.76172 h 0.39063 v 4.35547 l -0.58594,-0.19531 -0.68359,-0.0781 q -1.48438,0 -2.36329,0.89844 -0.8789,0.89844 -0.8789,2.46094 v 13.63281 z m 9.68734,0 v -28.24219 h 3.92578 v 28.24219 z m 6.83578,-24.35547 v -3.88672 h 3.92578 v 3.88672 z m 0,24.35547 v -20.83984 h 3.92578 v 20.83984 z m 6.83578,0 v -20.83984 h 3.92578 v 2.28515 q 1.05469,-1.23047 2.20704,-1.89453 1.17187,-0.66406 2.22656,-0.66406 1.36719,0 2.05078,0.91797 0.68359,0.91797 0.68359,2.7539 v 17.44141 h -3.88672 V 679.6743 q 0,-0.95703 -0.23437,-1.28906 -0.21484,-0.35156 -0.80078,-0.35156 -0.42969,0 -1.05469,0.42969 -0.625,0.42968 -1.19141,1.13281 v 15.80078 z m 14.29672,0 v -4.43359 h 4.16016 v 4.43359 z m 7.91001,0 V 677.7993 h -2.20704 v -3.24218 h 2.20704 v -2.44141 q 0,-2.46094 1.13281,-3.71094 1.13281,-1.25 3.3789,-1.25 0.27344,0 0.46875,0 0.19532,0 0.6836,0.0781 0.48828,0.0586 1.09375,0.23437 v 3.39844 l -0.6836,-0.13672 -0.35156,-0.0586 q -0.95703,0 -1.40625,0.42969 -0.42969,0.41015 -0.42969,1.32812 v 2.12891 h 2.48047 v 3.24218 h -2.48047 v 17.59766 z m 7.94905,0 v -20.83984 h 3.92579 v 2.83203 q 0.74218,-1.54297 1.77734,-2.30469 1.05469,-0.76172 2.34375,-0.76172 h 0.39062 v 4.35547 l -0.58593,-0.19531 -0.6836,-0.0781 q -1.48437,0 -2.36328,0.89844 -0.8789,0.89844 -0.8789,2.46094 v 13.63281 z m 13.30063,-13.16406 h 3.39844 v -2.10938 q 0,-1.28906 -0.41016,-1.85547 -0.39062,-0.58593 -1.26953,-0.58593 -0.89844,0 -1.32812,0.5664 -0.39063,0.56641 -0.39063,1.875 z m -4.0039,7.28515 v -9.35546 q 0,-2.67579 1.64062,-4.39454 1.66016,-1.73828 4.23828,-1.73828 2.61719,0 4.0625,1.60157 1.44531,1.58203 1.44531,4.53125 v 5.3125 h -7.38281 v 3.92578 q 0,1.66015 0.3711,2.28515 0.39062,0.625 1.30859,0.625 0.91797,0 1.30859,-0.52734 0.41016,-0.54688 0.41016,-2.38281 v -1.44532 h 3.98437 v 1.5625 q 0,3.1836 -1.46484,4.82422 -1.44531,1.6211 -4.33594,1.6211 -2.57812,0 -4.08203,-1.71875 -1.5039,-1.71875 -1.5039,-4.72657 z m 13.7889,-18.47656 v -3.88672 h 3.92578 v 3.88672 z m 0,24.35547 v -20.83984 h 3.92578 v 20.83984 z m 7.36313,0 V 677.7993 h -2.20703 v -3.24218 h 2.20703 v -2.44141 q 0,-2.46094 1.13281,-3.71094 1.13281,-1.25 3.37891,-1.25 0.27343,0 0.46875,0 0.19531,0 0.68359,0.0781 0.48828,0.0586 1.09375,0.23437 v 3.39844 l -0.68359,-0.13672 -0.35157,-0.0586 q -0.95703,0 -1.40625,0.42969 -0.42968,0.41015 -0.42968,1.32812 v 2.12891 h 2.48046 v 3.24218 h -2.48046 v 17.59766 z m 18.94515,-20.83984 v 20.83984 h -3.86719 v -2.28516 q -1.05469,1.26954 -2.24609,1.9336 -1.17188,0.66406 -2.2461,0.66406 -1.34765,0 -2.03125,-0.9375 -0.68359,-0.9375 -0.68359,-2.77344 v -17.4414 h 3.88672 v 15.99609 q 0,0.72266 0.23437,1.07422 0.23438,0.33203 0.80079,0.33203 0.41015,0 1.05468,-0.42969 0.64453,-0.42968 1.23047,-1.13281 v -15.83984 z m 2.92953,20.83984 v -20.83984 h 3.92579 v 2.28515 q 1.05468,-1.23047 2.20703,-1.89453 1.17187,-0.66406 2.22656,-0.66406 1.36719,0 2.05078,0.91797 0.68359,0.91797 0.68359,2.7539 v 17.44141 h -3.88671 V 679.6743 q 0,-0.95703 -0.23438,-1.28906 -0.21484,-0.35156 -0.80078,-0.35156 -0.42969,0 -1.05469,0.42969 -0.625,0.42968 -1.1914,1.13281 v 15.80078 z m 13.92563,0 v -28.24219 h 3.92578 v 15.03907 l 3.55469,-7.63672 h 4.16016 l -3.86719,6.99218 4.12109,13.84766 h -3.92578 l -2.71484,-10.3125 -1.32813,2.44141 v 7.87109 z m 13.4178,0 v -4.43359 h 4.16016 v 4.43359 z m 7.38266,0 v -20.83984 h 3.92579 v 2.28515 q 1.05468,-1.23047 2.20703,-1.89453 1.17187,-0.66406 2.22656,-0.66406 1.36719,0 2.05078,0.91797 0.68359,0.91797 0.68359,2.7539 v 17.44141 h -3.88671 V 679.6743 q 0,-0.95703 -0.23438,-1.28906 -0.21484,-0.35156 -0.80078,-0.35156 -0.42969,0 -1.05469,0.42969 -0.625,0.42968 -1.1914,1.13281 v 15.80078 z m 17.53891,-13.16406 h 3.39844 v -2.10938 q 0,-1.28906 -0.41016,-1.85547 -0.39062,-0.58593 -1.26953,-0.58593 -0.89843,0 -1.32812,0.5664 -0.39063,0.56641 -0.39063,1.875 z m -4.0039,7.28515 v -9.35546 q 0,-2.67579 1.64062,-4.39454 1.66016,-1.73828 4.23828,-1.73828 2.61719,0 4.0625,1.60157 1.44532,1.58203 1.44532,4.53125 v 5.3125 h -7.38282 v 3.92578 q 0,1.66015 0.3711,2.28515 0.39062,0.625 1.30859,0.625 0.91797,0 1.30859,-0.52734 0.41016,-0.54688 0.41016,-2.38281 v -1.44532 h 3.98438 v 1.5625 q 0,3.1836 -1.46485,4.82422 -1.44531,1.6211 -4.33594,1.6211 -2.57812,0 -4.08203,-1.71875 -1.5039,-1.71875 -1.5039,-4.72657 z m 14.84359,1.48438 V 677.7993 h -2.40234 v -3.24218 h 2.40234 v -5.9961 h 3.86719 v 5.9961 h 2.89063 v 3.24218 h -2.89063 v 12.83204 q 0,0.89843 0.42969,1.34765 0.44922,0.44922 1.28906,0.44922 l 0.46875,-0.0391 0.6836,-0.15625 0.0195,3.39844 q -0.48828,0.15625 -1.09375,0.2539 l -1.15235,0.0781 q -2.24609,0 -3.3789,-1.23047 -1.13282,-1.23047 -1.13282,-3.73047 z"
       id="text1059"
       transform="matrix(0.34339167,0,0,0.34339167,199.14452,-222.6411)"
       aria-label="berlin.freifunk.net" />
    <path
       style="fill:none;stroke:#dc0067;stroke-width:0.313804;stroke-linecap:butt;stroke-linejoin:miter;stroke-miterlimit:4;stroke-dasharray:none;stroke-opacity:1"
       d="M 2.0587942,63.498363 H 108.74399"
       id="path1061"
       sodipodi:nodetypes="cc" />
    <path
       style="fill:none;stroke:#dc0067;stroke-width:0.313804;stroke-linecap:butt;stroke-linejoin:miter;stroke-miterlimit:4;stroke-dasharray:none;stroke-opacity:1"
       d="M 1.6023213,54.039074 H 110.56989"
       id="path1063" />
    <path
       style="fill:none;stroke:#dc0067;stroke-width:0.313804;stroke-linecap:butt;stroke-linejoin:miter;stroke-miterlimit:4;stroke-dasharray:none;stroke-opacity:1"
       d="M 1.6023213,44.579786 H 110.56989"
       id="path1065" />
    <path
       style="fill:none;stroke:#dc0067;stroke-width:0.313804;stroke-linecap:butt;stroke-linejoin:miter;stroke-miterlimit:4;stroke-dasharray:none;stroke-opacity:1"
       d="M 1.6023213,35.120497 H 83.035053"
       id="path1067"
       sodipodi:nodetypes="cc" />
    <path
       style="fill:none;stroke:#dc0067;stroke-width:0.313804;stroke-linecap:butt;stroke-linejoin:miter;stroke-miterlimit:4;stroke-dasharray:none;stroke-opacity:1"
       d="M 1.6023213,25.661209 H 75.692438"
       id="path1069"
       sodipodi:nodetypes="cc" />
    <g
       id="g1095"
       transform="matrix(0.22823629,0,0,0.22823629,-117.13811,-192.2797)">
      <path
         style="font-weight:bold;font-size:40px;line-height:1.25;-inkscape-font-specification:'sans-serif Bold';white-space:pre"
         d="m -159.85883,840.25821 q 0,2.52 -1.24,4.4 -1.24,1.88 -3.6,2.92 -2.32,1 -5.68,1 -1.48,0 -2.92,-0.2 -1.4,-0.2 -2.72,-0.56 -1.28,-0.4 -2.44,-0.96 v -5.64 q 2.04,0.88 4.2,1.64 2.2,0.72 4.36,0.72 1.48,0 2.36,-0.4 0.92,-0.4 1.32,-1.08 0.44,-0.68 0.44,-1.56 0,-1.08 -0.76,-1.84 -0.72,-0.76 -1.96,-1.4 -1.24,-0.68 -2.84,-1.44 -1,-0.48 -2.16,-1.12 -1.16,-0.68 -2.24,-1.64 -1.04,-1 -1.72,-2.4 -0.68,-1.4 -0.68,-3.36 0,-2.56 1.16,-4.36 1.2,-1.84 3.36,-2.8 2.2,-0.96 5.16,-0.96 2.24,0 4.24,0.52 2.04,0.52 4.24,1.48 l -1.96,4.72 q -1.96,-0.8 -3.52,-1.24 -1.56,-0.44 -3.2,-0.44 -1.12,0 -1.92,0.36 -0.8,0.36 -1.24,1 -0.4,0.64 -0.4,1.52 0,1 0.6,1.72 0.6,0.68 1.8,1.32 1.2,0.64 3,1.52 2.2,1.04 3.72,2.16 1.56,1.12 2.4,2.64 0.84,1.52 0.84,3.76 z m 13.92003,3.56 q 1,0 1.92,-0.2 0.92,-0.2 1.84,-0.48 v 4.44 q -0.96,0.4 -2.4,0.68 -1.4,0.32 -3.08,0.32 -1.96,0 -3.52,-0.64 -1.52,-0.64 -2.44,-2.2 -0.88,-1.6 -0.88,-4.4 v -10.52 h -2.84 v -2.52 l 3.28,-2 1.72,-4.6 h 3.8 v 4.64 h 6.12 v 4.48 h -6.12 v 10.52 q 0,1.24 0.72,1.88 0.72,0.6 1.88,0.6 z m 17.12,-17.92 q 4.4,0 6.72,1.92 2.36,1.88 2.36,5.8 v 14.56 h -4.16 l -1.16,-2.96 h -0.16 q -0.92,1.16 -1.92,1.92 -0.96,0.76 -2.24,1.08 -1.24,0.36 -3.08,0.36 -1.92,0 -3.48,-0.72 -1.52,-0.76 -2.4,-2.28 -0.88,-1.56 -0.88,-3.92 0,-3.48 2.44,-5.12 2.44,-1.68 7.32,-1.84 l 3.8,-0.12 v -0.96 q 0,-1.72 -0.92,-2.52 -0.88,-0.8 -2.48,-0.8 -1.6,0 -3.12,0.48 -1.52,0.44 -3.04,1.12 l -1.96,-4.04 q 1.76,-0.92 3.88,-1.44 2.16,-0.52 4.48,-0.52 z m 0.84,12.24 q -2.88,0.08 -4,1.04 -1.12,0.96 -1.12,2.52 0,1.36 0.8,1.96 0.8,0.56 2.08,0.56 1.92,0 3.24,-1.12 1.32,-1.16 1.32,-3.24 v -1.8 z m 26.76,-12.2 q 3.52,0 5.64,1.92 2.12,1.88 2.12,6.08 v 14.24 h -5.96 v -12.76 q 0,-2.36 -0.84,-3.52 -0.84,-1.2 -2.68,-1.2 -2.72,0 -3.72,1.88 -1,1.84 -1,5.32 v 10.28 h -5.96 v -21.84 h 4.56 l 0.8,2.8 h 0.32 q 0.72,-1.12 1.76,-1.8 1.04,-0.72 2.32,-1.04 1.28,-0.36 2.64,-0.36 z m 20.799983,22.64 q -3.64,0 -5.96,-2.84 -2.28,-2.88 -2.28,-8.44 0,-5.6 2.32,-8.48 2.32,-2.88 6.08,-2.88 1.56,0 2.76,0.44 1.2,0.4 2.04,1.12 0.88,0.72 1.48,1.64 h 0.2 q -0.12,-0.64 -0.28,-1.84 -0.16,-1.24 -0.16,-2.52 v -7 h 5.96 v 30.4 h -4.56 l -1.16,-2.84 h -0.24 q -0.56,0.88 -1.44,1.64 -0.84,0.72 -2,1.16 -1.16,0.44 -2.76,0.44 z m 2.08,-4.76 q 2.48,0 3.48,-1.44 1,-1.48 1.04,-4.4 v -0.64 q 0,-3.2 -1,-4.88 -0.96,-1.68 -3.6,-1.68 -1.96,0 -3.08,1.72 -1.12,1.68 -1.12,4.88 0,3.2 1.12,4.84 1.12,1.6 3.16,1.6 z m 36.159977,-6.6 q 0,2.72 -0.76,4.84 -0.72,2.12 -2.12,3.6 -1.36,1.44 -3.32,2.2 -1.96,0.72 -4.44,0.72 -2.28,0 -4.24,-0.72 -1.92,-0.76 -3.32,-2.2 -1.4,-1.48 -2.2,-3.6 -0.76,-2.12 -0.76,-4.84 0,-3.64 1.28,-6.12 1.28,-2.52 3.68,-3.84 2.4,-1.32 5.68,-1.32 3.08,0 5.44,1.32 2.36,1.32 3.72,3.84 1.36,2.48 1.36,6.12 z m -15.08,0 q 0,2.16 0.44,3.64 0.48,1.44 1.48,2.2 1,0.72 2.6,0.72 1.6,0 2.56,-0.72 1,-0.76 1.44,-2.2 0.48,-1.48 0.48,-3.64 0,-2.16 -0.48,-3.6 -0.44,-1.44 -1.44,-2.16 -1,-0.72 -2.6,-0.72 -2.36,0 -3.44,1.64 -1.04,1.6 -1.04,4.84 z m 32.19998,-11.28 q 0.44,0 1.04,0.04 0.6,0.04 0.96,0.12 l -0.44,5.6 q -0.28,-0.08 -0.84,-0.12 -0.52,-0.08 -0.92,-0.08 -1.16,0 -2.24,0.32 -1.08,0.28 -1.96,0.92 -0.84,0.64 -1.36,1.72 -0.48,1.04 -0.48,2.6 v 11.12 h -5.96 v -21.84 h 4.52 l 0.88,3.68 h 0.28 q 0.64,-1.12 1.6,-2.04 0.96,-0.92 2.2,-1.48 1.28,-0.56 2.72,-0.56 z m 15.1600184,17.88 q 1,0 1.92,-0.2 0.92,-0.2 1.84,-0.48 v 4.44 q -0.96,0.4 -2.4,0.68 -1.4,0.32 -3.0800004,0.32 -1.96,0 -3.52,-0.64 -1.52,-0.64 -2.44,-2.2 -0.88,-1.6 -0.88,-4.4 v -10.52 h -2.84 v -2.52 l 3.28,-2 1.72,-4.6 h 3.8 v 4.64 h 6.1200004 v 4.48 h -6.1200004 v 10.52 q 0,1.24 0.72,1.88 0.72,0.6 1.8800004,0.6 z m 7.3200007,1.56 q 0,-1.84 1,-2.56 0.99999996,-0.76 2.43999996,-0.76 1.40000004,0 2.40000004,0.76 1,0.72 1,2.56 0,1.76 -1,2.56 -1,0.76 -2.40000004,0.76 -1.44,0 -2.43999996,-0.76 -1,-0.8 -1,-2.56 z m 0,-16.12 q 0,-1.84 1,-2.56 0.99999996,-0.76 2.43999996,-0.76 1.40000004,0 2.40000004,0.76 1,0.72 1,2.56 0,1.76 -1,2.56 -1,0.76 -2.40000004,0.76 -1.44,0 -2.43999996,-0.76 -1,-0.8 -1,-2.56 z"
         id="text1075"
         transform="matrix(0.40213922,0,0,0.40213922,614.91036,605.42505)"
         aria-label="Standort:" />
      <path
         style="font-weight:bold;font-size:40px;line-height:1.25;-inkscape-font-specification:'sans-serif Bold';white-space:pre"
         d="m -153.01883,833.61821 q 0,4.8 -1.84,8.04 -1.84,3.24 -5.36,4.88 -3.48,1.64 -8.4,1.64 h -8.08 v -28.56 h 8.96 q 4.48,0 7.76,1.6 3.32,1.6 5.12,4.72 1.84,3.08 1.84,7.68 z m -6.28,0.16 q 0,-3.16 -0.92,-5.2 -0.92,-2.04 -2.76,-3 -1.8,-1 -4.44,-1 h -3.24 v 18.6 h 2.6 q 4.44,0 6.6,-2.36 2.16,-2.36 2.16,-7.04 z m 20.67999,-7.88 q 4.4,0 6.72,1.92 2.36,1.88 2.36,5.8 v 14.56 h -4.16 l -1.16,-2.96 h -0.16 q -0.92,1.16 -1.92,1.92 -0.96,0.76 -2.24,1.08 -1.24,0.36 -3.08,0.36 -1.92,0 -3.48,-0.72 -1.52,-0.76 -2.4,-2.28 -0.88,-1.56 -0.88,-3.92 0,-3.48 2.44,-5.12 2.44,-1.68 7.32,-1.84 l 3.8,-0.12 v -0.96 q 0,-1.72 -0.92,-2.52 -0.88,-0.8 -2.48,-0.8 -1.6,0 -3.12,0.48 -1.52,0.44 -3.04,1.12 l -1.96,-4.04 q 1.76,-0.92 3.88,-1.44 2.16,-0.52 4.48,-0.52 z m 0.84,12.24 q -2.88,0.08 -4,1.04 -1.12,0.96 -1.12,2.52 0,1.36 0.8,1.96 0.8,0.56 2.08,0.56 1.92,0 3.24,-1.12 1.32,-1.16 1.32,-3.24 v -1.8 z m 23.56001,5.68 q 1,0 1.92,-0.2 0.92,-0.2 1.84,-0.48 v 4.44 q -0.96,0.4 -2.4,0.68 -1.4,0.32 -3.08,0.32 -1.96,0 -3.52,-0.64 -1.52,-0.64 -2.44,-2.2 -0.88,-1.6 -0.88,-4.4 v -10.52 h -2.84 v -2.52 l 3.28,-2 1.72,-4.6 h 3.8 v 4.64 h 6.12 v 4.48 h -6.12 v 10.52 q 0,1.24 0.72,1.88 0.72,0.6 1.88,0.6 z m 28.199997,-17.48 v 21.84 h -4.56 l -0.8,-2.8 h -0.32 q -0.68,1.12 -1.76,1.84 -1.04,0.68 -2.32,1 -1.28,0.36 -2.64,0.36 -2.319997,0 -4.079997,-0.84 -1.76,-0.84 -2.72,-2.6 -0.96,-1.76 -0.96,-4.56 v -14.24 h 5.96 v 12.76 q 0,2.32 0.839997,3.52 0.84,1.2 2.68,1.2 1.84,0 2.84,-0.84 1.04,-0.84 1.44,-2.44 0.44,-1.6 0.44,-3.92 v -10.28 z m 31.879984,-0.4 q 3.72,0 5.6,1.92 1.92,1.88 1.92,6.08 v 14.24 h -5.96 v -12.76 q 0,-2.36 -0.8,-3.52 -0.8,-1.2 -2.48,-1.2 -2.36,0 -3.36,1.68 -1,1.68 -1,4.84 v 10.96 h -5.96 v -12.76 q 0,-1.56 -0.36,-2.6 -0.36,-1.04 -1.08,-1.56 -0.72,-0.56 -1.84,-0.56 -1.64,0 -2.6,0.84 -0.96,0.84 -1.36,2.44 -0.4,1.6 -0.4,3.92 v 10.28 h -5.96 v -21.84 h 4.56 l 0.8,2.8 h 0.32 q 0.68,-1.12 1.68,-1.8 1,-0.72 2.2,-1.04 1.24,-0.36 2.48,-0.36 2.4,0 4.08,0.8 1.68,0.76 2.56,2.4 h 0.52 q 1,-1.68 2.76,-2.44 1.8,-0.76 3.68,-0.76 z m 12.800014,19.44 q 0,-1.84 1,-2.56 1,-0.76 2.44,-0.76 1.4,0 2.4,0.76 1,0.72 1,2.56 0,1.76 -1,2.56 -1,0.76 -2.4,0.76 -1.44,0 -2.44,-0.76 -1,-0.8 -1,-2.56 z m 0,-16.12 q 0,-1.84 1,-2.56 1,-0.76 2.44,-0.76 1.4,0 2.4,0.76 1,0.72 1,2.56 0,1.76 -1,2.56 -1,0.76 -2.4,0.76 -1.44,0 -2.44,-0.76 -1,-0.8 -1,-2.56 z"
         id="text1081"
         transform="matrix(0.40213922,0,0,0.40213922,614.91036,645.63897)"
         aria-label="Datum:" />
      <path
         style="font-weight:bold;font-size:40px;line-height:1.25;-inkscape-font-specification:'sans-serif Bold';white-space:pre"
         d="m -153.01883,833.61821 q 0,4.8 -1.84,8.04 -1.84,3.24 -5.36,4.88 -3.48,1.64 -8.4,1.64 h -8.08 v -28.56 h 8.96 q 4.48,0 7.76,1.6 3.32,1.6 5.12,4.72 1.84,3.08 1.84,7.68 z m -6.28,0.16 q 0,-3.16 -0.92,-5.2 -0.92,-2.04 -2.76,-3 -1.8,-1 -4.44,-1 h -3.24 v 18.6 h 2.6 q 4.44,0 6.6,-2.36 2.16,-2.36 2.16,-7.04 z m 31.55999,3.44 q 0,2.72 -0.76,4.84 -0.72,2.12 -2.12,3.6 -1.36,1.44 -3.32,2.2 -1.96,0.72 -4.44,0.72 -2.28,0 -4.24,-0.72 -1.92,-0.76 -3.32,-2.2 -1.4,-1.48 -2.2,-3.6 -0.76,-2.12 -0.76,-4.84 0,-3.64 1.28,-6.12 1.28,-2.52 3.68,-3.84 2.4,-1.32 5.68,-1.32 3.08,0 5.44,1.32 2.36,1.32 3.72,3.84 1.36,2.48 1.36,6.12 z m -15.08,0 q 0,2.16 0.44,3.64 0.48,1.44 1.48,2.2 1,0.72 2.6,0.72 1.6,0 2.56,-0.72 1,-0.76 1.44,-2.2 0.48,-1.48 0.48,-3.64 0,-2.16 -0.48,-3.6 -0.44,-1.44 -1.44,-2.16 -1,-0.72 -2.6,-0.72 -2.36,0 -3.44,1.64 -1.04,1.6 -1.04,4.84 z m 25.95998,-5.84 q 0,1.24 -0.12,2.48 -0.08,1.2 -0.2,2.44 h 0.08 q 0.4,-0.56 0.8,-1.12 0.44,-0.56 0.88,-1.12 0.44,-0.56 0.92,-1.08 l 6.12,-6.64 h 6.72 l -8.68,9.48 9.2,12.36 h -6.88 l -6.28,-8.84 -2.56,2.04 v 6.8 h -5.96 v -30.4 h 5.96 z m 38.880036,-5.04 v 21.84 h -4.56 l -0.8,-2.8 h -0.32 q -0.68,1.12 -1.76,1.84 -1.04,0.68 -2.32,1 -1.28,0.36 -2.64,0.36 -2.32,0 -4.08,-0.84 -1.76,-0.84 -2.72,-2.6 -0.96,-1.76 -0.96,-4.56 v -14.24 h 5.96 v 12.76 q 0,2.32 0.84,3.52 0.84,1.2 2.68,1.2 1.84,0 2.84,-0.84 1.04,-0.84 1.44,-2.44 0.44,-1.6 0.44,-3.92 v -10.28 z m 5.399983,19.04 q 0,-1.84 1,-2.56 1,-0.76 2.44,-0.76 1.4,0 2.4,0.76 1,0.72 1,2.56 0,1.76 -1,2.56 -1,0.76 -2.4,0.76 -1.44,0 -2.44,-0.76 -1,-0.8 -1,-2.56 z m 0,-16.12 q 0,-1.84 1,-2.56 1,-0.76 2.44,-0.76 1.4,0 2.4,0.76 1,0.72 1,2.56 0,1.76 -1,2.56 -1,0.76 -2.4,0.76 -1.44,0 -2.44,-0.76 -1,-0.8 -1,-2.56 z"
         id="text1087"
         transform="matrix(0.40213922,0,0,0.40213922,614.91036,686.65717)"
         aria-label="Doku:" />
      <path
         d="m 616.19016,1268.552 h -5.4 v 18.72 h -3.52 v -18.72 h -3.76 v -1.64 l 3.76,-1.2 v -1.24 q 0,-2.76 0.8,-4.48 0.84,-1.72 2.4,-2.52 1.56,-0.8 3.76,-0.8 1.28,0 2.32,0.24 1.08,0.2 1.84,0.48 l -0.92,2.76 q -0.64,-0.2 -1.48,-0.4 -0.84,-0.2 -1.72,-0.2 -1.76,0 -2.64,1.2 -0.84,1.16 -0.84,3.68 v 1.4 h 5.4 z m 13.76,0 h -5.4 v 18.72 h -3.52 v -18.72 h -3.76 v -1.64 l 3.76,-1.2 v -1.24 q 0,-2.76 0.8,-4.48 0.84,-1.72 2.4,-2.52 1.56,-0.8 3.76,-0.8 1.28,0 2.32,0.24 1.08,0.2 1.84,0.48 l -0.92,2.76 q -0.64,-0.2 -1.48,-0.4 -0.84,-0.2 -1.72,-0.2 -1.76,0 -2.64,1.2 -0.84,1.16 -0.84,3.68 v 1.4 h 5.4 z m 2.55997,16.56 q 0,-1.48 0.72,-2.08 0.72,-0.6 1.72,-0.6 1.04,0 1.76,0.6 0.76,0.6 0.76,2.08 0,1.44 -0.76,2.08 -0.72,0.64 -1.76,0.64 -1,0 -1.72,-0.64 -0.72,-0.64 -0.72,-2.08 z m 14.75998,-20.84 q 0,1.36 -0.08,2.56 -0.04,1.16 -0.12,1.84 h 0.2 q 0.92,-1.36 2.52,-2.28 1.6,-0.92 4.12,-0.92 4,0 6.4,2.8 2.44,2.76 2.44,8.28 0,3.68 -1.12,6.16 -1.08,2.48 -3.08,3.72 -2,1.24 -4.64,1.24 -2.52,0 -4.12,-0.92 -1.6,-0.92 -2.52,-2.2 h -0.28 l -0.72,2.72 h -2.52 v -30.4 h 3.52 z m 6.04,4.12 q -2.28,0 -3.6,0.88 -1.32,0.84 -1.88,2.64 -0.56,1.76 -0.56,4.52 v 0.16 q 0,3.96 1.28,6.08 1.32,2.08 4.84,2.08 2.88,0 4.28,-2.12 1.44,-2.12 1.44,-6.12 0,-4.04 -1.44,-6.08 -1.4,-2.04 -4.36,-2.04 z m 23.31999,-2.96 q 2.76,0 4.72,1.2 2,1.2 3.04,3.4 1.08,2.16 1.08,5.08 v 2.12 h -14.68 q 0.08,3.64 1.84,5.56 1.8,1.88 5,1.88 2.04,0 3.6,-0.36 1.6,-0.4 3.28,-1.12 v 3.08 q -1.64,0.72 -3.24,1.04 -1.6,0.36 -3.8,0.36 -3.04,0 -5.4,-1.24 -2.32,-1.24 -3.64,-3.68 -1.28,-2.48 -1.28,-6.04 0,-3.52 1.16,-6.04 1.2,-2.52 3.32,-3.88 2.16,-1.36 5,-1.36 z m -0.04,2.88 q -2.52,0 -4,1.64 -1.44,1.6 -1.72,4.48 h 10.92 q 0,-1.84 -0.56,-3.2 -0.56,-1.36 -1.72,-2.12 -1.12,-0.8 -2.92,-0.8 z m 24.31997,-2.88 q 0.6,0 1.28,0.08 0.72,0.04 1.24,0.16 l -0.44,3.24 q -0.52,-0.12 -1.16,-0.2 -0.6,-0.08 -1.16,-0.08 -1.24,0 -2.36,0.52 -1.12,0.52 -2,1.48 -0.88,0.92 -1.4,2.24 -0.48,1.32 -0.48,2.96 v 11.44 h -3.52 v -21.44 h 2.88 l 0.4,3.92 h 0.16 q 0.68,-1.2 1.64,-2.16 0.96,-1 2.2,-1.56 1.24,-0.6 2.72,-0.6 z m 10.04001,21.84 h -3.52 v -30.4 h 3.52 z m 10.31997,-21.44 v 21.44 h -3.52 v -21.44 z m -1.72,-8.04 q 0.8,0 1.4,0.56 0.64,0.52 0.64,1.68 0,1.12 -0.64,1.68 -0.6,0.56 -1.4,0.56 -0.88,0 -1.48,-0.56 -0.6,-0.56 -0.6,-1.68 0,-1.16 0.6,-1.68 0.6,-0.56 1.48,-0.56 z m 18.83998,7.64 q 3.84,0 5.8,1.88 1.96,1.84 1.96,6 v 13.96 h -3.48 v -13.72 q 0,-2.6 -1.16,-3.88 -1.16,-1.28 -3.64,-1.28 -3.56,0 -4.92,2 -1.36,2 -1.36,5.76 v 11.12 h -3.52 v -21.44 h 2.84 l 0.52,2.92 h 0.2 q 0.72,-1.12 1.76,-1.84 1.08,-0.76 2.36,-1.12 1.28,-0.36 2.64,-0.36 z m 25.48,-6.72 -10.64,28.56 h -3.44 l 10.64,-28.56 z m 11.39999,28.96 q -4,0 -6.4,-2.76 -2.4,-2.8 -2.4,-8.32 0,-5.52 2.4,-8.32 2.44,-2.84 6.44,-2.84 1.68,0 2.92,0.44 1.24,0.4 2.16,1.12 0.92,0.72 1.56,1.6 h 0.24 q -0.04,-0.52 -0.16,-1.52 -0.08,-1.04 -0.08,-1.64 v -8.56 h 3.52 v 30.4 h -2.84 l -0.52,-2.88 h -0.16 q -0.64,0.92 -1.56,1.68 -0.92,0.72 -2.2,1.16 -1.24,0.44 -2.92,0.44 z m 0.56,-2.92 q 3.4,0 4.76,-1.84 1.4,-1.88 1.4,-5.64 v -0.64 q 0,-4 -1.32,-6.12 -1.32,-2.16 -4.88,-2.16 -2.84,0 -4.28,2.28 -1.4,2.24 -1.4,6.04 0,3.84 1.4,5.96 1.44,2.12 4.32,2.12 z m 27.51999,-26.04 -10.64,28.56 h -3.44 l 10.64,-28.56 z"
         id="text1093"
         style="font-size:40px;line-height:1.25;white-space:pre"
         transform="matrix(0.40213922,0,0,0.40213922,357.73187,508.81581)"
         aria-label="ff.berlin/d/" />
    </g>
    <g
       transform="matrix(0.07905246,0,0,-0.07905246,72.719756,35.765442)"
       id="g1114"
       style="fill:#ffffff;fill-opacity:1;stroke:#ffffff;stroke-width:46.00742502;stroke-miterlimit:4;stroke-dasharray:none;stroke-opacity:1">
      <g
         transform="scale(0.1)"
         id="g1112"
         style="fill:#ffffff;fill-opacity:1;stroke:#ffffff;stroke-width:460.07425024;stroke-miterlimit:4;stroke-dasharray:none;stroke-opacity:1">
        <path
           id="path1097"
           style="fill:#ffffff;fill-opacity:1;fill-rule:nonzero;stroke:#ffffff;stroke-width:460.07425024;stroke-miterlimit:4;stroke-dasharray:none;stroke-opacity:1"
           d="m 5.46875,1199.21 c 0,625.12 506.73825,1131.86 1131.85125,1131.86 625.11,0 1131.86,-506.74 1131.86,-1131.86 C 2269.18,574.102 1762.43,67.3633 1137.32,67.3633 512.207,67.3633 5.46875,574.102 5.46875,1199.21" />
        <path
           id="path1099"
           style="fill:#ffffff;fill-opacity:1;fill-rule:nonzero;stroke:#ffffff;stroke-width:460.07425024;stroke-miterlimit:4;stroke-dasharray:none;stroke-opacity:1"
           d="m 1074.7,1647.08 c 0,909.57 734.23,1646.9 1639.99,1646.9 905.76,0 1640,-737.33 1640,-1646.9 C 4354.69,737.508 3620.45,0.175781 2714.69,0.175781 1808.93,0.175781 1074.7,737.508 1074.7,1647.08" />
        <path
           id="path1101"
           style="fill:#ffffff;fill-opacity:1;stroke:#ffffff;stroke-width:460.07425024;stroke-linecap:butt;stroke-linejoin:miter;stroke-miterlimit:4;stroke-dasharray:none;stroke-opacity:1"
           d="m 251.148,1199.22 c 0,491.48 396.747,889.9 886.172,889.9 489.42,0 886.17,-398.42 886.17,-889.9 0,-491.49 -396.75,-889.904 -886.17,-889.904 -489.425,0 -886.172,398.414 -886.172,889.904 z" />
        <path
           id="path1103"
           style="fill:#ffffff;fill-opacity:1;fill-rule:nonzero;stroke:#ffffff;stroke-width:460.07425024;stroke-miterlimit:4;stroke-dasharray:none;stroke-opacity:1"
           d="m 2273.06,1401.21 375.17,376.87 h 353.32 l -250.1,-251.25 500.65,0.01 v -251.22 l -500.65,-0.04 250.1,-251.25 h -353.32 l -375.17,376.88" />
        <path
           id="path1105"
           style="fill:#ffffff;fill-opacity:1;fill-rule:nonzero;stroke:#ffffff;stroke-width:460.07425024;stroke-miterlimit:4;stroke-dasharray:none;stroke-opacity:1"
           d="M 1160.27,1401.21 938.695,1623.79 H 730.02 l 147.714,-148.39 -295.66,-0.01 v -148.42 l 295.66,0.04 -147.714,-148.39 h 208.675 l 221.575,222.59" />
        <path
           id="path1107"
           style="fill:#ffffff;fill-opacity:1;stroke:#ffffff;stroke-width:460.07425024;stroke-linecap:butt;stroke-linejoin:miter;stroke-miterlimit:4;stroke-dasharray:none;stroke-opacity:1"
           d="m 1474.06,1647.09 c 0,688.07 555.44,1245.85 1240.63,1245.85 685.19,0 1240.63,-557.78 1240.63,-1245.85 0,-688.078 -555.44,-1245.856 -1240.63,-1245.856 -685.19,0 -1240.63,557.778 -1240.63,1245.856 z" />
        <path
           id="path1110"
           style="fill:#ffffff;fill-opacity:1;stroke:#ffffff;stroke-width:460.07425024;stroke-linecap:butt;stroke-linejoin:miter;stroke-miterlimit:4;stroke-dasharray:none;stroke-opacity:1"
           d="m 1763.92,1647.09 c 0,527.31 425.67,954.77 950.77,954.77 525.1,0 950.76,-427.46 950.76,-954.77 0,-527.31 -425.66,-954.77 -950.76,-954.77 -525.1,0 -950.77,427.46 -950.77,954.77 z" />
      </g>
    </g>
    <g
       transform="matrix(0.07905246,0,0,-0.07905246,72.719756,35.765442)"
       id="g1132">
      <g
         transform="scale(0.1)"
         id="g1130">
        <path
           id="path1116"
           style="fill:#ffffff;fill-opacity:1;fill-rule:nonzero;stroke:none"
           d="m 5.46875,1199.21 c 0,625.12 506.73825,1131.86 1131.85125,1131.86 625.11,0 1131.86,-506.74 1131.86,-1131.86 C 2269.18,574.102 1762.43,67.3633 1137.32,67.3633 512.207,67.3633 5.46875,574.102 5.46875,1199.21" />
        <path
           id="path1118"
           style="fill:#ffffff;fill-opacity:1;fill-rule:nonzero;stroke:none"
           d="m 1074.7,1647.08 c 0,909.57 734.23,1646.9 1639.99,1646.9 905.76,0 1640,-737.33 1640,-1646.9 C 4354.69,737.508 3620.45,0.175781 2714.69,0.175781 1808.93,0.175781 1074.7,737.508 1074.7,1647.08" />
        <path
           id="path1120"
           style="fill:none;stroke:#dc0067;stroke-width:44.4471;stroke-linecap:butt;stroke-linejoin:miter;stroke-miterlimit:3.86369;stroke-dasharray:none;stroke-opacity:1"
           d="m 251.148,1199.22 c 0,491.48 396.747,889.9 886.172,889.9 489.42,0 886.17,-398.42 886.17,-889.9 0,-491.49 -396.75,-889.904 -886.17,-889.904 -489.425,0 -886.172,398.414 -886.172,889.904 z" />
        <path
           id="path1122"
           style="fill:#ffb400;fill-opacity:1;fill-rule:nonzero;stroke:none"
           d="m 2273.06,1401.21 375.17,376.87 h 353.32 l -250.1,-251.25 500.65,0.01 v -251.22 l -500.65,-0.04 250.1,-251.25 h -353.32 l -375.17,376.88" />
        <path
           id="path1124"
           style="fill:#ffb400;fill-opacity:1;fill-rule:nonzero;stroke:none"
           d="M 1160.27,1401.21 938.695,1623.79 H 730.02 l 147.714,-148.39 -295.66,-0.01 v -148.42 l 295.66,0.04 -147.714,-148.39 h 208.675 l 221.575,222.59" />
        <path
           id="path1126"
           style="fill:none;stroke:#dc0067;stroke-width:265.708;stroke-linecap:butt;stroke-linejoin:miter;stroke-miterlimit:3.86369;stroke-dasharray:none;stroke-opacity:1"
           d="m 1474.06,1647.09 c 0,688.07 555.44,1245.85 1240.63,1245.85 685.19,0 1240.63,-557.78 1240.63,-1245.85 0,-688.078 -555.44,-1245.856 -1240.63,-1245.856 -685.19,0 -1240.63,557.778 -1240.63,1245.856 z" />
        <path
           id="path1128"
           style="fill:none;stroke:#dc0067;stroke-width:44.452;stroke-linecap:butt;stroke-linejoin:miter;stroke-miterlimit:3.86369;stroke-dasharray:none;stroke-opacity:1"
           d="m 1763.92,1647.09 c 0,527.31 425.67,954.77 950.77,954.77 525.1,0 950.76,-427.46 950.76,-954.77 0,-527.31 -425.66,-954.77 -950.76,-954.77 -525.1,0 -950.77,427.46 -950.77,954.77 z" />
      </g>
    </g>
    <path
       style="fill:none;stroke:#dc0067;stroke-width:0.313804;stroke-linecap:butt;stroke-linejoin:miter;stroke-miterlimit:4;stroke-dasharray:none;stroke-opacity:1"
       d="M 2.0587942,72.957651 H 108.74399"
       id="path1"
       sodipodi:nodetypes="cc" />
  </g>
</svg>
